HIERARCHY
ROOT Hips
{
 OFFSET 0.000000 0.000000 0.000000
 CHANNELS 6 Xposition Yposition Zposition Yrotation Xrotation Zrotation
 JOINT Chest
 {
  OFFSET 0.000000 10.383400 0.001500
  CHANNELS 3 Yrotation Xrotation Zrotation
  JOINT Chest2
  {
   OFFSET 0.000000 10.418200 -0.003100
   CHANNELS 3 Yrotation Xrotation Zrotation
   JOINT Chest3
   {
    OFFSET 0.000000 10.375100 0.000000
    CHANNELS 3 Yrotation Xrotation Zrotation
    JOINT Chest4
    {
     OFFSET 0.000000 10.364600 0.000000
     CHANNELS 3 Yrotation Xrotation Zrotation
     JOINT Neck
     {
      OFFSET 0.000000 15.642200 0.000000
      CHANNELS 3 Yrotation Xrotation Zrotation
      JOINT Head
      {
       OFFSET 0.000000 9.697300 -0.006500
       CHANNELS 3 Yrotation Xrotation Zrotation
       End Site
       {
        OFFSET 0.000000 18.492200 -0.003400
       }
      }
     }
     JOINT RightCollar
     {
      OFFSET -3.166800 10.349300 0.000000
      CHANNELS 3 Yrotation Xrotation Zrotation
      JOINT RightShoulder
      {
       OFFSET -14.729700 0.000000 0.000000
       CHANNELS 3 Yrotation Xrotation Zrotation
       JOINT RightElbow
       {
        OFFSET 0.000000 -32.224300 0.000000
        CHANNELS 3 Yrotation Xrotation Zrotation
        JOINT RightWrist
        {
         OFFSET 0.000000 -26.084100 0.000000
         CHANNELS 3 Yrotation Xrotation Zrotation
         End Site
         {
          OFFSET 0.000000 -19.319400 0.000000
         }
        }
       }
      }
     }
     JOINT LeftCollar
     {
      OFFSET 3.166800 10.349300 0.000000
      CHANNELS 3 Yrotation Xrotation Zrotation
      JOINT LeftShoulder
      {
       OFFSET 14.729700 0.000000 0.000000
       CHANNELS 3 Yrotation Xrotation Zrotation
       JOINT LeftElbow
       {
        OFFSET 0.000000 -32.224300 0.000000
        CHANNELS 3 Yrotation Xrotation Zrotation
        JOINT LeftWrist
        {
         OFFSET 0.000000 -26.084100 0.000000
         CHANNELS 3 Yrotation Xrotation Zrotation
         End Site
         {
          OFFSET 0.000000 -19.319400 0.000000
         }
        }
       }
      }
     }
    }
   }
  }
 }
 JOINT RightHip
 {
  OFFSET -8.428900 -0.007500 -0.000800
  CHANNELS 3 Yrotation Xrotation Zrotation
  JOINT RightKnee
  {
   OFFSET 0.000000 -43.834600 0.000700
   CHANNELS 3 Yrotation Xrotation Zrotation
   JOINT RightAnkle
   {
    OFFSET 0.000000 -42.757000 0.001200
    CHANNELS 3 Yrotation Xrotation Zrotation
    JOINT RightToe
    {
     OFFSET 0.000000 -6.946900 15.649300
     CHANNELS 3 Yrotation Xrotation Zrotation
     End Site
     {
      OFFSET 0.000000 -1.580800 6.825800
     }
    }
   }
  }
 }
 JOINT LeftHip
 {
  OFFSET 8.428900 -0.007500 -0.000800
  CHANNELS 3 Yrotation Xrotation Zrotation
  JOINT LeftKnee
  {
   OFFSET 0.000000 -43.834600 0.000700
   CHANNELS 3 Yrotation Xrotation Zrotation
   JOINT LeftAnkle
   {
    OFFSET 0.000000 -42.757000 0.001200
    CHANNELS 3 Yrotation Xrotation Zrotation
    JOINT LeftToe
    {
     OFFSET 0.000000 -6.946900 15.649300
     CHANNELS 3 Yrotation Xrotation Zrotation
     End Site
     {
      OFFSET 0.000000 -1.580800 6.825800
     }
    }
   }
  }
 }
}
MOTION
Frames: 5
Frame Time: 0.008333
23.720179 127.020979 -50.484770 -15.486537 -30.060595 -1.860371 -1.970592 15.524105 0.925749 -0.198395 1.485119 0.111996 -0.331306 2.496265 0.181272 -1.756717 13.788014 0.874066 3.054908 17.849277 0.180593 5.579542 -2.645624 -0.651488 -1.927446 -4.980112 -3.749906 8.124187 -6.716134 -16.100899 32.443272 -52.005857 2.961476 1.896729 -22.879936 -21.634795 -1.399449 -4.668468 -4.739196 1.350703 -4.102911 6.703811 -10.333888 -9.840711 9.743638 -13.068494 -5.916759 0.060204 -2.740833 -40.359991 0.146219 -26.634481 73.634032 -29.089046 0.671295 -1.861360 7.258171 -0.003532 -0.009840 -0.001567 -4.994904 -33.390440 -5.487462 1.554819 69.163565 4.188137 -11.136686 -4.671671 -4.622031 -0.001878 -0.000364 -0.000834
23.720676 127.021649 -50.485293 -15.478159 -30.069223 -1.866481 -1.976857 15.534567 0.925221 -0.197180 1.492176 0.101466 -0.331504 2.499799 0.179935 -1.762562 13.817953 0.845215 3.072285 17.820531 0.218178 5.582848 -2.641661 -0.616866 -1.890961 -5.070804 -3.784814 8.093144 -6.601195 -16.241307 32.389901 -52.158419 3.182786 1.853391 -22.814364 -21.532429 -1.401156 -4.717294 -4.706976 1.296238 -4.084954 6.674428 -10.339162 -9.896537 9.647866 -13.145304 -5.888312 -0.248208 -2.759427 -40.357072 0.142654 -26.642136 73.640798 -29.094171 0.680283 -1.856612 7.261804 -0.003357 -0.010725 -0.001490 -5.030061 -33.385174 -5.477055 1.594263 69.161610 4.213449 -11.121521 -4.668930 -4.623643 -0.001697 -0.000482 -0.000753
23.720992 127.022067 -50.486585 -15.473651 -30.073978 -1.872497 -1.977290 15.546408 0.916825 -0.196200 1.495965 0.096403 -0.332930 2.495278 0.190224 -1.762145 13.833394 0.827090 3.077743 17.817777 0.236423 5.586429 -2.654247 -0.598519 -1.867591 -5.135093 -3.845652 8.050777 -6.488051 -16.371769 32.354543 -52.314219 3.397641 1.820936 -22.769964 -21.450753 -1.410820 -4.747568 -4.690944 1.197167 -4.057406 6.620863 -10.280099 -9.939555 9.589575 -13.212264 -5.863288 -0.585619 -2.773954 -40.357584 0.143562 -26.644232 73.645258 -29.093761 0.683614 -1.847192 7.272937 -0.002402 -0.009826 -0.001066 -5.061072 -33.382510 -5.473980 1.620124 69.154873 4.245596 -11.102064 -4.664784 -4.642358 0.001540 -0.000643 0.000684
23.720486 127.023020 -50.487378 -15.469706 -30.083617 -1.881694 -1.970196 15.566974 0.897954 -0.201782 1.489406 0.117207 -0.333449 2.496981 0.189990 -1.758139 13.849363 0.805912 3.081106 17.818531 0.254145 5.589516 -2.663541 -0.556609 -1.858234 -5.182726 -3.892151 8.004990 -6.384512 -16.510840 32.322892 -52.468711 3.610175 1.796261 -22.752215 -21.381965 -1.437776 -4.807735 -4.713999 1.147869 -4.010127 6.634917 -10.231443 -9.955145 9.574021 -13.247476 -5.863092 -1.005354 -2.785621 -40.349582 0.148751 -26.662906 73.644200 -29.096658 0.686932 -1.845288 7.257770 0.005229 -0.008467 0.002321 -5.088456 -33.375416 -5.459774 1.640557 69.153162 4.260625 -11.100207 -4.661414 -4.645702 0.000257 -0.000265 0.000114
23.721604 127.023541 -50.488468 -15.467942 -30.088666 -1.881454 -1.965587 15.574477 0.886751 -0.205494 1.490970 0.120822 -0.331073 2.505478 0.180109 -1.753245 13.857383 0.792461 3.083846 17.813282 0.274416 5.590222 -2.671648 -0.519882 -1.854567 -5.223240 -3.940194 7.953511 -6.279479 -16.637554 32.284988 -52.617267 3.821049 1.771709 -22.758510 -21.323404 -1.452119 -4.837235 -4.696448 1.118825 -3.996223 6.628459 -10.207877 -9.971949 9.455504 -13.251809 -5.821482 -1.351531 -2.793414 -40.350192 0.144160 -26.647049 73.651964 -29.080875 0.690400 -1.842349 7.257847 0.003159 -0.009755 0.001402 -5.097476 -33.372267 -5.459336 1.650120 69.149621 4.271113 -11.104570 -4.656046 -4.646391 -0.000585 0.000149 -0.000260
